<?xml version="1.0" encoding="UTF-8" standalone="no"?>
<!-- Created with Inkscape (http://www.inkscape.org/) -->

<svg
   xmlns:dc="http://purl.org/dc/elements/1.1/"
   xmlns:cc="http://creativecommons.org/ns#"
   xmlns:rdf="http://www.w3.org/1999/02/22-rdf-syntax-ns#"
   xmlns:svg="http://www.w3.org/2000/svg"
   xmlns="http://www.w3.org/2000/svg"
   version="1.1"
   width="1440"
   height="1080"
   id="svg4110">
  <defs
     id="defs4112" />
  <metadata
     id="metadata4115">
    <rdf:RDF>
      <cc:Work
         rdf:about="">
        <dc:format>image/svg+xml</dc:format>
        <dc:type
           rdf:resource="http://purl.org/dc/dcmitype/StillImage" />
        <dc:title></dc:title>
      </cc:Work>
    </rdf:RDF>
  </metadata>
  <g
     transform="translate(0,27.637817)"
     id="layer1">
    <rect
       width="1440"
       height="1080"
       x="0"
       y="-27.637817"
       id="rect4118"
       style="fill:#000000;fill-opacity:1;stroke:none" />
    <g
       id="g4748">
      <path
         d="m 419.8867,185.6076 c -12.42879,-0.0152 -24.71111,5.63695 -32.74387,16.35251 -8.40659,11.21425 -10.21637,25.3391 -6.02052,37.67681 -13.0127,-0.56073 -26.05063,5.06632 -34.45292,16.27483 -13.52886,18.04729 -9.89043,43.68551 8.15684,57.21438 18.04725,13.52885 43.68554,9.85159 57.21437,-8.19568 2.01762,-2.69146 3.59555,-5.58234 4.85526,-8.54525 L 654.1821,474.2819 452.90247,731.53296 c -1.99693,-2.54568 -4.29171,-4.90961 -6.95274,-6.99157 -17.76419,-13.89847 -43.43242,-10.73378 -57.3309,7.03041 -13.89846,17.76419 -10.7726,43.39361 6.99158,57.29206 11.03834,8.63627 25.09976,10.73768 37.52144,6.79737 -0.82918,12.99836 4.58181,26.13181 15.61451,34.76365 17.76421,13.89848 43.43243,10.81146 57.33091,-6.95273 13.89846,-17.76417 10.77261,-43.47129 -6.99158,-57.36974 -2.64925,-2.07274 -5.49245,-3.72888 -8.42873,-5.04947 l 192.92859,-246.56949 17.47893,23.34408 18.95494,-14.17735 18.91609,14.17735 17.47893,-23.30524 192.92859,246.53065 c -2.93628,1.32059 -5.77948,2.97673 -8.42873,5.04947 -17.76419,13.89845 -20.92888,39.60557 -7.03042,57.36974 13.89848,17.76419 39.60556,20.85121 57.36975,6.95273 11.03277,-8.63184 16.40467,-21.76529 15.57577,-34.76365 12.4215,3.94031 26.5218,1.8389 37.5602,-6.79737 17.7642,-13.89845 20.8901,-39.52787 6.9916,-57.29206 -13.8985,-17.76419 -39.5668,-20.92888 -57.33095,-7.03041 -2.66102,2.08196 -4.99465,4.44589 -6.99157,6.99157 L 785.81789,474.32074 1023.1041,296.3852 c 1.2599,2.96291 2.8765,5.85379 4.8941,8.54525 13.5289,18.04727 39.1282,21.72453 57.1756,8.19568 18.0473,-13.52887 21.6856,-39.16709 8.1568,-57.21438 -8.4022,-11.20851 -21.4402,-16.83556 -34.4529,-16.27483 4.1959,-12.33771 2.3861,-26.46256 -6.0205,-37.67681 -13.529,-18.04726 -39.0893,-21.72453 -57.1368,-8.19568 -18.04721,13.52887 -21.72446,39.12827 -8.19561,57.17554 2.02674,2.70343 4.33241,5.05905 6.8362,7.1081 L 756.25907,436.5274 739.05203,414.54279 719.98057,429.45814 700.90911,414.54279 683.74092,436.5274 445.639,258.04807 c 2.50391,-2.04905 4.8096,-4.40467 6.8362,-7.1081 13.52885,-18.04727 9.8516,-43.64667 -8.19567,-57.17554 -7.33171,-5.49609 -15.88891,-8.14648 -24.39283,-8.15683 z"
         id="path4697"
         style="fill:#ffffff;fill-opacity:1;stroke:#000000;stroke-width:4.99999952;stroke-linecap:round;stroke-linejoin:round;stroke-miterlimit:4;stroke-opacity:1;stroke-dasharray:none" />
      <path
         d="m 635.18278,548.64227 c -44.39095,78.12807 -54.78644,243.79106 101.34052,243.79106 156.12694,0 97.5309,-204.72702 75.33542,-246.4545"
         id="path4660"
         style="fill:#ffffff;stroke:#000000;stroke-width:4.99999952;stroke-linecap:butt;stroke-linejoin:miter;stroke-miterlimit:4;stroke-opacity:1;stroke-dasharray:none" />
      <g
         transform="matrix(1.2429464,0,0,1.2429464,-285.48538,-203.6129)"
         id="g4687"
         style="stroke-width:4.01608419;stroke-miterlimit:4;stroke-dasharray:none">
        <path
           d="m 721.42857,658.07647 c 38.54208,33.20966 143.28667,30.92598 179.64286,0"
           id="path4662"
           style="fill:none;stroke:#000000;stroke-width:4.02269936;stroke-linecap:butt;stroke-linejoin:miter;stroke-miterlimit:4;stroke-opacity:1;stroke-dasharray:none" />
        <path
           d="m 717.85714,711.64789 c 60.06318,30.10113 123.15157,28.94181 188.92858,0"
           id="path4664"
           style="fill:none;stroke:#000000;stroke-width:4.02269936;stroke-linecap:butt;stroke-linejoin:miter;stroke-miterlimit:4;stroke-opacity:1;stroke-dasharray:none" />
        <path
           d="m 812.32143,732.94253 0,-102.00892"
           id="path4666"
           style="fill:none;stroke:#000000;stroke-width:4.02269936;stroke-linecap:butt;stroke-linejoin:miter;stroke-miterlimit:4;stroke-opacity:1;stroke-dasharray:none" />
        <path
           d="m 758.92857,726.8711 c -0.11346,-29.86681 7.093,-77.18741 15.35715,-98.9732"
           id="path4668"
           style="fill:none;stroke:#000000;stroke-width:4.02269936;stroke-linecap:butt;stroke-linejoin:miter;stroke-miterlimit:4;stroke-opacity:1;stroke-dasharray:none" />
        <path
           d="m 867.67726,726.8711 c 0.11346,-29.86681 -7.093,-77.18741 -15.35715,-98.9732"
           id="path4670"
           style="fill:none;stroke:#000000;stroke-width:4.02269936;stroke-linecap:butt;stroke-linejoin:miter;stroke-miterlimit:4;stroke-opacity:1;stroke-dasharray:none" />
      </g>
      <path
         d="m 531.71304,389.52849 c -1.73158,14.24274 -1.71946,28.63754 0,42.88165 12.16912,100.80997 106.31549,172.95442 210.29099,161.15577 103.9755,-11.79864 178.41321,-103.07209 166.24408,-203.88205 0,0 -122.73187,-40.7982 -186.94723,-40.9168 -64.21535,-0.11858 -189.58784,40.76143 -189.58784,40.76143 z"
         id="path4141"
         style="fill:#ffffff;fill-opacity:1;stroke:#000000;stroke-width:4.99999952;stroke-miterlimit:4;stroke-opacity:1;stroke-dasharray:none" />
      <g
         transform="matrix(1.2429464,0,0,1.2429464,-285.48538,-198.28599)"
         id="g4137"
         style="stroke-width:4.01608419;stroke-miterlimit:4;stroke-dasharray:none">
        <path
           d="m 970.71428,549.28571 a 121.42857,121.42857 0 1 1 -242.85715,0 121.42857,121.42857 0 1 1 242.85715,0 z"
           transform="matrix(0.35882354,0,0,0.35882354,436.68486,335.97982)"
           id="path4131"
           style="fill:#000000;fill-opacity:1;stroke:none" />
        <path
           d="m 970.71428,549.28571 a 121.42857,121.42857 0 1 1 -242.85715,0 121.42857,121.42857 0 1 1 242.85715,0 z"
           transform="matrix(0.35882354,0,0,0.35882354,574.542,335.97982)"
           id="path4133"
           style="fill:#000000;fill-opacity:1;stroke:none" />
      </g>
      <path
         d="m 970.71428,549.28571 a 121.42857,121.42857 0 1 1 -242.85715,0 121.42857,121.42857 0 1 1 242.85715,0 z"
         transform="matrix(0.1754748,0,0,0.1754748,572.71687,431.83665)"
         id="path4135"
         style="fill:#000000;fill-opacity:1;stroke:none" />
      <path
         d="m 659.74887,480.76924 a 131.42857,126.42857 0 0 1 259.1062,0.18328"
         transform="matrix(1.4422231,0,0,1.4536152,-418.35664,-318.89217)"
         id="path4651"
         style="fill:#f0b133;fill-opacity:1;stroke:#000000;stroke-width:3.45325804;stroke-miterlimit:4;stroke-opacity:1;stroke-dasharray:none" />
      <path
         d="m 713.84353,308.03782 c -53.03461,0.18092 -107.42892,6.63795 -163.4863,20.89703 -8.08425,15.71675 -13.98686,32.83632 -17.20704,51.03849 119.71297,-24.17722 244.51781,-22.89505 373.69961,0.2719 -3.17829,-18.12534 -9.07855,-35.35405 -17.24589,-51.2327 -57.22598,-13.36957 -115.61973,-21.17988 -175.76038,-20.97472 z"
         id="path4654"
         style="fill:#98201f;fill-opacity:1;stroke:#000000;stroke-width:4.99999952;stroke-miterlimit:4;stroke-opacity:1;stroke-dasharray:none" />
      <path
         d="m 719.97261,353.6939 c -206.44161,0 -335.57797,37.76268 -335.57797,55.90485 0,32.34727 38.36865,-12.41837 335.57797,-12.41837 297.20939,0 335.61869,45.65345 335.61869,12.41837 0,-18.14217 -129.1771,-55.90485 -335.61869,-55.90485 z"
         id="path4679"
         style="fill:#f0b133;fill-opacity:1;stroke:#000000;stroke-width:4.99999952;stroke-linecap:round;stroke-linejoin:round;stroke-miterlimit:4;stroke-opacity:1;stroke-dasharray:none" />
    </g>
  </g>
</svg>
